<?xml version="1.0" encoding="utf-8"?>
<!-- Generator: Adobe Illustrator 26.0.2, SVG Export Plug-In . SVG Version: 6.00 Build 0)  -->
<svg version="1.1" id="Ebene_1" xmlns="http://www.w3.org/2000/svg" xmlns:xlink="http://www.w3.org/1999/xlink" x="0px" y="0px"
	 viewBox="0 0 222.6 56.7" style="enable-background:new 0 0 222.6 56.7;" xml:space="preserve">
<style type="text/css">
	.st0{fill:#00AFD1;}
	.st1{fill:#A2D9EA;}
	.st2{fill:#5FC4DE;}
	.st3{fill:#009CC4;}
</style>
<path class="st0" d="M47.6,8l-6.3,6.7c0.5,0.5,0.9,0.9,1.4,1.4l7-6C49,9.4,48.3,8.7,47.6,8z"/>
<path class="st1" d="M44.2,5.2l-2.8,4c0.5,0.3,1,0.7,1.5,1.1l3.1-3.8C45.4,6.1,44.8,5.6,44.2,5.2z"/>
<path class="st2" d="M39.7,2.7l-2.7,6c0.7,0.3,1.4,0.7,2,1L42.3,4C41.4,3.5,40.6,3.1,39.7,2.7z"/>
<path class="st2" d="M34.8,1l-2.1,9c0.6,0.2,1.3,0.3,1.9,0.6l3.1-8.7C36.7,1.5,35.7,1.3,34.8,1z"/>
<path class="st3" d="M30.4,0.3L29.8,8c0.5,0,1.1,0.1,1.6,0.2l1.2-7.6C31.9,0.5,31.2,0.4,30.4,0.3z"/>
<path class="st2" d="M25.2,5.3c1-0.1,2-0.2,3-0.2V0.2c-1.2,0-2.5,0.1-3.7,0.2L25.2,5.3z"/>
<path class="st3" d="M22.8,10.2c0.5-0.1,1-0.3,1.4-0.4l-1.9-9c-0.7,0.2-1.4,0.3-2.1,0.5L22.8,10.2z"/>
<path class="st2" d="M18.2,7.4c0.5-0.3,1.1-0.5,1.7-0.7l-1.7-4.5c-0.7,0.3-1.4,0.6-2,0.9L18.2,7.4z"/>
<path class="st1" d="M16.2,13.7c0.8-0.6,1.6-1.2,2.5-1.7l-4.6-8c-1.3,0.7-2.5,1.6-3.6,2.5L16.2,13.7z"/>
<path class="st2" d="M6.8,10.1l3.7,3.2c0.5-0.6,1.1-1.2,1.7-1.8L8.8,8C8.1,8.7,7.4,9.4,6.8,10.1z"/>
<path class="st0" d="M4.2,13.7l7.9,4.8c0.3-0.4,0.5-0.8,0.8-1.2l-7.4-5.4C5,12.5,4.5,13.1,4.2,13.7z"/>
<path class="st2" d="M1.4,19.7l6.2,2c0.4-1.1,0.8-2.1,1.3-3.1l-5.8-3C2.4,16.9,1.8,18.3,1.4,19.7z"/>
<path class="st0" d="M5.2,24.8c0.1-0.6,0.2-1.2,0.4-1.8l-4.7-1.1c-0.2,0.7-0.3,1.4-0.4,2.2L5.2,24.8z"/>
<path class="st1" d="M0,28.4L0,28.4l9.2,0v0c0-0.5,0-1,0.1-1.5l-9.2-0.7C0,27,0,27.7,0,28.4z"/>
<path class="st3" d="M0.1,30.7c0.1,1.2,0.3,2.5,0.5,3.7l4.8-1c-0.2-1-0.4-2-0.4-3L0.1,30.7z"/>
<path class="st3" d="M2.1,39.2l8.5-3.5c-0.3-0.6-0.5-1.2-0.7-1.9l-8.8,2.6C1.4,37.4,1.8,38.3,2.1,39.2z"/>
<path class="st2" d="M3.1,41.2C3.5,42.1,4,43,4.6,43.8l4.1-2.6c-0.4-0.7-0.9-1.4-1.2-2.1L3.1,41.2z"/>
<path class="st2" d="M7.2,47.3l5.7-5.2c-0.4-0.4-0.7-0.8-1-1.2l-6.1,4.7C6.3,46.2,6.8,46.8,7.2,47.3z"/>
<path class="st3" d="M8.8,48.9c0.7,0.7,1.5,1.3,2.2,1.9l5.6-7.3c-0.5-0.4-1-0.8-1.5-1.3L8.8,48.9z"/>
<path class="st2" d="M12.8,52.1c1.2,0.8,2.5,1.5,3.9,2.1l2.7-6c-1-0.5-2-1-3-1.6L12.8,52.1z"/>
<path class="st1" d="M23.1,56.2c0.7,0.1,1.5,0.2,2.2,0.3l0.5-4.8c-0.6-0.1-1.2-0.2-1.8-0.3L23.1,56.2z"/>
<path class="st0" d="M28.2,56.6c1.2,0,2.5-0.1,3.7-0.2l-1.2-9.1c-0.8,0.1-1.6,0.2-2.5,0.2c-0.2,0-0.3,0-0.5,0l-0.2,9.2
	C27.7,56.6,27.9,56.6,28.2,56.6z"/>
<path class="st1" d="M34.3,49.2c-0.5,0.2-1.1,0.3-1.6,0.4l1.4,6.4c0.7-0.2,1.4-0.3,2.1-0.5L34.3,49.2z"/>
<path class="st0" d="M36.8,45.4c-0.6,0.3-1.2,0.6-1.8,0.8l3.3,8.6c0.9-0.4,1.8-0.8,2.7-1.2L36.8,45.4z"/>
<path class="st0" d="M41.1,44.4c-0.7,0.6-1.4,1.1-2.2,1.5l4,6.6c1.1-0.6,2.1-1.4,3-2.1L41.1,44.4z"/>
<path class="st3" d="M42.6,40.8c-0.4,0.5-0.9,1-1.4,1.4l6.3,6.7c0.7-0.7,1.4-1.4,2-2.1L42.6,40.8z"/>
<path class="st0" d="M21.9,46.3L18.8,55c0.1,0,0.2,0.1,0.3,0.1c0.6,0.2,1.2,0.4,1.9,0.6l0,0l2.4-8.9C22.8,46.7,22.3,46.5,21.9,46.3z
	"/>
<g>
	<g>
		<path d="M85.5,4.9C80.2,4.9,76,9,76,14.2c0,5.3,4.1,9.4,9.5,9.4c2.7,0,5.6-1.2,7.7-3.3l3.2,3.5c-2.9,2.9-7,4.8-11.1,4.8
			c-8.3,0-14.7-6.2-14.7-14.4c0-8.1,6.5-14.2,14.9-14.2c4,0,8.1,1.7,10.9,4.5l-3.1,3.9C91.1,6.3,88.3,4.9,85.5,4.9z"/>
		<path d="M114.2,0.2v28.2h-5.4V0.2H114.2z"/>
		<path d="M138.4,4.9c-2.5,0-4.2,0.9-4.2,2.7c0,5.7,15.1,2.6,15.1,12.7c0,5.3-4.6,8.3-10.8,8.3c-4.5,0-8.9-1.8-11.9-4.5l2.3-4.6
			c2.9,2.6,6.7,4.1,9.7,4.1c3,0,4.8-1.1,4.8-3.1c0-5.9-15.1-2.5-15.1-12.6c0-4.9,4.2-8.1,10.6-8.1c3.7,0,7.5,1.2,10.2,3l-2.2,4.7
			C143.9,5.8,140.6,4.9,138.4,4.9z"/>
		<path d="M185.3,9.9c0,6.4-4.1,10.2-11.2,10.2h-6.2v8.3h-5.4V0.2h11.6C181.2,0.2,185.3,3.7,185.3,9.9z M180.1,10.1
			c0-3.5-2.3-5.2-6.3-5.2h-5.9v10.4h5.9C177.8,15.4,180.1,13.7,180.1,10.1z"/>
		<path d="M214.3,22.5h-13.8l-2.5,6h-5.6l12.4-28.2h5.6l12.2,28.2h-5.8L214.3,22.5z M212.4,17.8L207.4,6l-5,11.8H212.4z"/>
	</g>
</g>
<g>
	<path d="M76,38.9v6.6h-0.7v-3h-4.1v3h-0.7v-6.6h0.7v2.9h4.1v-2.9H76z"/>
	<path d="M84.3,44.8v0.6h-4.6v-6.6h4.5v0.6h-3.8v2.3h3.4v0.6h-3.4v2.4H84.3z"/>
	<path d="M87.4,38.9h0.7v6h3.7v0.6h-4.4V38.9z"/>
	<path d="M101.3,38.9v6.6h-0.7v-5.2L98,44.6h-0.3l-2.6-4.4v5.2h-0.7v-6.6H95l2.8,4.9l2.8-4.9H101.3z"/>
	<path d="M110.4,38.9v6.6h-0.7v-3h-4.1v3h-0.7v-6.6h0.7v2.9h4.1v-2.9H110.4z"/>
	<path d="M113.5,42.1c0-1.9,1.5-3.3,3.4-3.3c2,0,3.4,1.4,3.4,3.3c0,1.9-1.5,3.3-3.4,3.3C115,45.5,113.5,44,113.5,42.1z M119.7,42.1
		c0-1.6-1.2-2.7-2.7-2.7c-1.6,0-2.8,1.2-2.8,2.7c0,1.6,1.2,2.7,2.8,2.7C118.5,44.9,119.7,43.7,119.7,42.1z"/>
	<path d="M123.5,38.9h0.7v6h3.7v0.6h-4.4V38.9z"/>
	<path d="M131.2,39.5h-2.3v-0.6h5.3v0.6h-2.3v6h-0.7V39.5z"/>
	<path d="M141.5,44.8v0.6h-5.4v-0.5l4.3-5.5h-4.3v-0.6h5.2v0.5l-4.3,5.5H141.5z"/>
	<path d="M147.8,42.1c0-1.9,1.5-3.3,3.4-3.3c1,0,1.8,0.3,2.4,1l-0.4,0.4c-0.5-0.5-1.2-0.8-1.9-0.8c-1.6,0-2.8,1.2-2.8,2.7
		c0,1.6,1.2,2.7,2.8,2.7c0.7,0,1.4-0.2,1.9-0.8l0.4,0.4c-0.6,0.6-1.4,1-2.4,1C149.3,45.5,147.8,44.1,147.8,42.1z"/>
	<path d="M161.3,44.8v0.6h-4.6v-6.6h4.5v0.6h-3.8v2.3h3.4v0.6h-3.4v2.4H161.3z"/>
	<path d="M169.9,38.9v6.6h-0.6l-4.2-5.3v5.3h-0.7v-6.6h0.6l4.2,5.3v-5.3H169.9z"/>
	<path d="M174.8,39.5h-2.3v-0.6h5.3v0.6h-2.3v6h-0.7V39.5z"/>
	<path d="M185.1,44.8v0.6h-4.6v-6.6h4.5v0.6h-3.8v2.3h3.4v0.6h-3.4v2.4H185.1z"/>
	<path d="M192.7,45.4l-1.5-2.1c-0.2,0-0.3,0-0.5,0H189v2.1h-0.7v-6.6h2.5c1.7,0,2.7,0.8,2.7,2.2c0,1-0.5,1.8-1.5,2.1l1.6,2.2H192.7z
		 M192.7,41.1c0-1-0.7-1.6-2-1.6H189v3.3h1.7C192,42.7,192.7,42.1,192.7,41.1z"/>
	<path d="M201.2,39.5V42h3.4v0.6h-3.4v2.8h-0.7v-6.6h4.5v0.6H201.2z"/>
	<path d="M207.3,42.1c0-1.9,1.5-3.3,3.4-3.3c2,0,3.4,1.4,3.4,3.3c0,1.9-1.5,3.3-3.4,3.3C208.8,45.5,207.3,44,207.3,42.1z
		 M213.5,42.1c0-1.6-1.2-2.7-2.7-2.7c-1.6,0-2.8,1.2-2.8,2.7c0,1.6,1.2,2.7,2.8,2.7C212.3,44.9,213.5,43.7,213.5,42.1z"/>
	<path d="M221.8,45.4l-1.5-2.1c-0.2,0-0.3,0-0.5,0H218v2.1h-0.7v-6.6h2.5c1.7,0,2.7,0.8,2.7,2.2c0,1-0.5,1.8-1.5,2.1l1.6,2.2H221.8z
		 M221.7,41.1c0-1-0.7-1.6-2-1.6H218v3.3h1.7C221,42.7,221.7,42.1,221.7,41.1z"/>
	<path d="M70.5,50.1h0.7v6.5h-0.7V50.1z"/>
	<path d="M80.6,50.1v6.5H80l-4.2-5.3v5.3h-0.7v-6.5h0.6l4.2,5.3v-5.3H80.6z"/>
	<path d="M85.2,50.7v2.6h3.4v0.6h-3.4v2.8h-0.7v-6.5H89v0.6H85.2z"/>
	<path d="M91.5,53.4c0-1.9,1.5-3.3,3.4-3.3c2,0,3.4,1.4,3.4,3.3c0,1.9-1.5,3.3-3.4,3.3C93,56.7,91.5,55.3,91.5,53.4z M97.7,53.4
		c0-1.6-1.2-2.7-2.7-2.7c-1.6,0-2.8,1.2-2.8,2.7c0,1.6,1.2,2.7,2.8,2.7C96.5,56.1,97.7,54.9,97.7,53.4z"/>
	<path d="M106.2,56.6l-1.5-2.1c-0.2,0-0.3,0-0.5,0h-1.8v2.1h-0.7v-6.5h2.4c1.7,0,2.7,0.8,2.7,2.2c0,1-0.5,1.7-1.5,2.1l1.6,2.2H106.2
		z M106.2,52.3c0-1-0.7-1.6-2-1.6h-1.7V54h1.7C105.5,54,106.2,53.4,106.2,52.3z"/>
	<path d="M117.1,50.1v6.5h-0.7v-5.2l-2.6,4.4h-0.3l-2.6-4.4v5.2h-0.7v-6.5h0.6l2.8,4.9l2.8-4.9H117.1z"/>
	<path d="M125.1,54.9h-3.6l-0.8,1.7H120l3-6.5h0.7l3,6.5h-0.7L125.1,54.9z M124.9,54.3l-1.6-3.5l-1.6,3.5H124.9z"/>
	<path d="M130.4,50.7h-2.3v-0.6h5.3v0.6h-2.3v5.9h-0.7V50.7z"/>
	<path d="M136.3,50.1h0.7v6.5h-0.7V50.1z"/>
	<path d="M140.4,53.4c0-1.9,1.5-3.3,3.4-3.3c2,0,3.4,1.4,3.4,3.3c0,1.9-1.5,3.3-3.4,3.3C141.8,56.7,140.4,55.3,140.4,53.4z
		 M146.5,53.4c0-1.6-1.2-2.7-2.7-2.7c-1.6,0-2.8,1.2-2.8,2.7c0,1.6,1.2,2.7,2.8,2.7C145.4,56.1,146.5,54.9,146.5,53.4z"/>
	<path d="M156,50.1v6.5h-0.6l-4.2-5.3v5.3h-0.7v-6.5h0.6l4.2,5.3v-5.3H156z"/>
	<path d="M163.6,55.8l0.3-0.5c0.5,0.5,1.3,0.8,2.2,0.8c1.2,0,1.8-0.5,1.8-1.2c0-1.8-4-0.7-4-3.1c0-1,0.7-1.8,2.4-1.8
		c0.7,0,1.5,0.2,2,0.6l-0.2,0.6c-0.6-0.4-1.2-0.5-1.8-0.5c-1.2,0-1.7,0.5-1.7,1.2c0,1.8,4,0.7,4,3.1c0,1-0.8,1.8-2.4,1.8
		C165,56.7,164,56.3,163.6,55.8z"/>
	<path d="M176.4,56v0.6h-4.6v-6.5h4.5v0.6h-3.8V53h3.4v0.6h-3.4V56H176.4z"/>
	<path d="M179.1,53.4c0-1.9,1.5-3.3,3.4-3.3c1,0,1.8,0.3,2.4,1l-0.4,0.4c-0.5-0.5-1.2-0.8-1.9-0.8c-1.6,0-2.8,1.2-2.8,2.7
		c0,1.6,1.2,2.7,2.8,2.7c0.7,0,1.4-0.2,1.9-0.8l0.4,0.4c-0.6,0.6-1.4,1-2.4,1C180.6,56.7,179.1,55.3,179.1,53.4z"/>
	<path d="M188.2,53.8v-3.7h0.7v3.7c0,1.6,0.7,2.3,2,2.3c1.3,0,2-0.7,2-2.3v-3.7h0.7v3.7c0,1.9-1,2.9-2.7,2.9
		C189.2,56.7,188.2,55.7,188.2,53.8z"/>
	<path d="M201.9,56.6l-1.5-2.1c-0.2,0-0.3,0-0.5,0h-1.8v2.1h-0.7v-6.5h2.4c1.7,0,2.7,0.8,2.7,2.2c0,1-0.5,1.7-1.5,2.1l1.6,2.2H201.9
		z M201.8,52.3c0-1-0.7-1.6-2-1.6h-1.7V54h1.7C201.1,54,201.8,53.4,201.8,52.3z"/>
	<path d="M206,50.1h0.7v6.5H206V50.1z"/>
	<path d="M211.8,50.7h-2.3v-0.6h5.3v0.6h-2.3v5.9h-0.7V50.7z"/>
	<path d="M219.9,54.4v2.3h-0.7v-2.3l-2.6-4.3h0.7l2.2,3.7l2.2-3.7h0.7L219.9,54.4z"/>
</g>
<path d="M60.5,0.2v56.4h-0.8V0.2H60.5z"/>
</svg>
