<?xml version="1.0" encoding="UTF-8"?>
<svg id="Layer_2" xmlns="http://www.w3.org/2000/svg" viewBox="0 0 279.37 279.29"><defs><style>.cls-1{fill:none;}.cls-2{fill:#fff;}.cls-3{fill:#9fcaf4;}.cls-4{fill:#489bff;}</style></defs><g id="Layer_2-2"><circle class="cls-2" cx="140.2" cy="120.25" r="76.16"/></g><g id="Layer_1-2"><g><path class="cls-4" d="M139.69,40.32c-44.18,0-80,35.82-80,80s35.82,80,80,80,80-35.82,80-80-35.82-80-80-80Zm0,150c-38.66,0-70-31.34-70-70s31.34-70,70-70,70,31.34,70,70-31.34,70-70,70Z"/><rect class="cls-4" x="121.69" y="23.32" width="36" height="22" rx="2.07" ry="2.07"/><rect class="cls-4" x="184.32" y="48.66" width="21.47" height="16.11" rx="2.05" ry="2.05" transform="translate(104.09 -124.91) rotate(47.18)"/><rect class="cls-4" x="73.61" y="48.65" width="21.47" height="16.11" rx="2.17" ry="2.17" transform="translate(183.27 33.38) rotate(132.82)"/><rect class="cls-4" x="137.71" y="48.66" width="3.98" height="11.42" rx="1.99" ry="1.99"/><rect class="cls-4" x="137.71" y="180.67" width="3.98" height="11.42" rx="1.99" ry="1.99"/><rect class="cls-4" x="68.08" y="118.33" width="11.42" height="3.98" rx="1.99" ry="1.99"/><rect class="cls-4" x="200.19" y="118.33" width="11.42" height="3.98" rx="1.99" ry="1.99"/><rect class="cls-4" x="105.62" y="57.04" width="3.98" height="11.42" rx="1.99" ry="1.99" transform="translate(-16.96 62.21) rotate(-30)"/><rect class="cls-4" x="171.84" y="170.97" width="3.98" height="11.42" rx="1.99" ry="1.99" transform="translate(-65.05 110.59) rotate(-30)"/><rect class="cls-4" x="80.96" y="80.68" width="3.98" height="11.42" rx="1.99" ry="1.99" transform="translate(-33.34 115.03) rotate(-60)"/><rect class="cls-4" x="194.36" y="148.12" width="3.98" height="11.42" rx="1.99" ry="1.99" transform="translate(-35.04 246.96) rotate(-60)"/><rect class="cls-4" x="167.13" y="60.99" width="11.42" height="3.98" rx="1.98" ry="1.98" transform="translate(31.87 181.18) rotate(-60)"/><rect class="cls-4" x="191.06" y="84.88" width="11.42" height="3.98" rx="1.99" ry="1.99" transform="translate(-17.07 110.02) rotate(-30)"/><rect class="cls-4" x="101.06" y="175.43" width="11.42" height="3.98" rx="1.99" ry="1.99" transform="translate(-100.26 181.18) rotate(-60)"/><rect class="cls-4" x="77.13" y="151.96" width="11.42" height="3.98" rx="1.99" ry="1.99" transform="translate(-65.87 62.05) rotate(-30)"/><rect class="cls-4" x="147.35" y="191.34" width="11.32" height="28.25" rx="5.66" ry="5.66"/><rect class="cls-4" x="107.4" y="189.32" width="11.32" height="54.44" rx="5.66" ry="5.66"/><rect class="cls-4" x="80.76" y="170.61" width="11.32" height="49.03" rx="5.66" ry="5.66"/><rect class="cls-4" x="173.98" y="202.89" width="11.32" height="23.28" rx="5.66" ry="5.66"/><rect class="cls-4" x="187.29" y="171.61" width="11.32" height="32.04" rx="5.66" ry="5.66"/><rect class="cls-4" x="120.71" y="190.32" width="11.32" height="43.02" rx="5.66" ry="5.66"/><rect class="cls-4" x="107.4" y="248.08" width="11.32" height="13.37" rx="5.66" ry="5.66"/><rect class="cls-4" x="173.98" y="229.08" width="11.32" height="13.37" rx="5.66" ry="5.66"/><rect class="cls-4" x="173.98" y="182.7" width="11.32" height="15.74" rx="5.66" ry="5.66"/><path class="cls-3" d="M136.96,123.19l-14.64-22.79c-.92-1.43-3.18-1.42-4.08,.02l-25.03,40.08c-.97,1.55-3.46,1.41-4.22-.23l-9.84-21.36c-.61-1.33-2.46-1.75-3.67-.82l-32.88,24.93c-2.25,1.7,.22,4.89,2.71,3.52l27.03-14.86c1.15-.63,2.63-.26,3.28,.81l13.32,22.18c.86,1.43,3.07,1.5,4.04,.13l25.67-36.23c.95-1.34,3.11-1.3,4,.07l16.35,25.2c.98,1.51,3.4,1.38,4.18-.23l12.51-25.82c.94-1.93,4.04-1.61,4.47,.47l6.81,32.82c.43,2.09,3.55,2.41,4.47,.46l7.97-16.69c.71-1.48,2.75-1.93,4.11-.9l37.31,21.85c2.44,1.43,5-1.66,2.84-3.43l-41.35-33.94c-.99-.81-2.51-.72-3.37,.21l-4.26,4.58c-1.22,1.31-3.55,.85-4.06-.81l-8.23-26.57c-.57-1.85-3.29-2.14-4.32-.47l-17.08,27.77c-.89,1.45-3.16,1.47-4.08,.04Z"/></g><rect class="cls-1" width="279.37" height="279.29"/></g></svg>