<?xml version="1.0" encoding="UTF-8" standalone="no"?>
<svg
   xmlns:dc="http://purl.org/dc/elements/1.1/"
   xmlns:cc="http://creativecommons.org/ns#"
   xmlns:rdf="http://www.w3.org/1999/02/22-rdf-syntax-ns#"
   xmlns:svg="http://www.w3.org/2000/svg"
   xmlns="http://www.w3.org/2000/svg"
   viewBox="0 0 150.66667 76"
   height="76"
   width="150.66667"
   xml:space="preserve"
   id="svg2"
   version="1.1"><metadata
     id="metadata8"><rdf:RDF><cc:Work
         rdf:about=""><dc:format>image/svg+xml</dc:format><dc:type
           rdf:resource="http://purl.org/dc/dcmitype/StillImage" /></cc:Work></rdf:RDF></metadata><defs
     id="defs6" /><g
     transform="matrix(1.3333333,0,0,-1.3333333,0,76)"
     id="g10"><path
       id="path12"
       style="fill:#ee2c56;fill-opacity:1;fill-rule:nonzero;stroke:none"
       d="m 0.1084,25.204 h 20.745 V 45.95 H 0.1084 Z" /><path
       id="path14"
       style="fill:#ee2c56;fill-opacity:1;fill-rule:nonzero;stroke:none"
       d="M 22.928,25.204 H 43.674 V 45.95 H 22.928 Z" /><path
       id="path16"
       style="fill:#ee2c56;fill-opacity:1;fill-rule:nonzero;stroke:none"
       d="M 45.749,25.204 H 66.493 V 45.95 H 45.749 Z" /><path
       id="path18"
       style="fill:#ee2c56;fill-opacity:1;fill-rule:nonzero;stroke:none"
       d="M 10.48,14.831 H 31.227 V 35.577 H 10.48 Z" /><path
       id="path20"
       style="fill:#ee2c56;fill-opacity:1;fill-rule:nonzero;stroke:none"
       d="M 35.376,35.577 H 56.12 V 56.323 H 35.376 Z" /><path
       id="path22"
       style="fill:#000101;fill-opacity:1;fill-rule:nonzero;stroke:none"
       d="M 75.212,42.622 H 68.57 v 3.319 H 85.69 V 42.622 H 79.049 V 25.248 h -3.837 v 17.374" /><path
       id="path24"
       style="fill:#000101;fill-opacity:1;fill-rule:nonzero;stroke:none"
       d="m 104.936,32.852 c 0,-1.247 -0.223,-2.372 -0.671,-3.375 -0.449,-1.003 -1.06,-1.856 -1.835,-2.556 -0.776,-0.703 -1.691,-1.242 -2.751,-1.621 -1.06,-0.381 -2.211,-0.571 -3.455,-0.571 -1.243,0 -2.394,0.19 -3.455,0.571 -1.06,0.379 -1.983,0.918 -2.766,1.621 -0.785,0.7 -1.398,1.553 -1.834,2.556 -0.44,1.003 -0.657,2.128 -0.657,3.375 V 45.941 H 91.35 V 32.984 c 0,-0.506 0.08,-1.036 0.244,-1.591 0.163,-0.554 0.433,-1.065 0.812,-1.533 0.378,-0.466 0.879,-0.851 1.503,-1.152 0.622,-0.301 1.394,-0.452 2.315,-0.452 0.92,0 1.692,0.151 2.315,0.452 0.623,0.301 1.125,0.686 1.503,1.152 0.378,0.468 0.648,0.979 0.812,1.533 0.164,0.555 0.246,1.085 0.246,1.591 v 12.957 h 3.836 V 32.852" /><path
       id="path26"
       style="fill:#000101;fill-opacity:1;fill-rule:nonzero;stroke:none"
       d="m 83.365,22.397 c -0.76,0.329 -1.746,0.486 -2.534,0.486 -2.293,0 -3.56,-1.443 -3.56,-3.318 0,-1.861 1.239,-3.263 3.334,-3.263 0.536,0 0.96,0.052 1.296,0.131 v 2.385 h -2.083 v 1.443 h 3.969 v -4.93 c -1.041,-0.262 -2.126,-0.472 -3.182,-0.472 -3.18,0 -5.39,1.482 -5.39,4.576 0,3.133 2.056,4.89 5.39,4.89 1.141,0 2.042,-0.144 2.886,-0.381 l -0.126,-1.547" /><path
       id="path28"
       style="fill:#000101;fill-opacity:1;fill-rule:nonzero;stroke:none"
       d="m 85.728,21.769 h 1.676 v -1.535 h 0.029 c 0.084,0.63 0.857,1.692 1.983,1.692 0.184,0 0.382,0 0.577,-0.053 v -1.771 c -0.168,0.092 -0.506,0.145 -0.845,0.145 -1.533,0 -1.533,-1.783 -1.533,-2.752 v -2.478 h -1.887 v 6.752" /><path
       id="path30"
       style="fill:#000101;fill-opacity:1;fill-rule:nonzero;stroke:none"
       d="m 91.484,21.414 c 0.732,0.315 1.718,0.512 2.521,0.512 2.209,0 3.124,-0.853 3.124,-2.846 v -0.865 c 0,-0.681 0.015,-1.193 0.028,-1.691 0.015,-0.511 0.042,-0.983 0.085,-1.507 h -1.661 c -0.07,0.353 -0.07,0.799 -0.084,1.009 h -0.029 c -0.436,-0.747 -1.38,-1.167 -2.237,-1.167 -1.281,0 -2.535,0.721 -2.535,2.006 0,1.009 0.521,1.599 1.239,1.927 0.719,0.328 1.647,0.393 2.436,0.393 h 1.041 c 0,1.088 -0.52,1.456 -1.633,1.456 -0.801,0 -1.604,-0.288 -2.237,-0.734 z m 2.211,-5.27 c 0.577,0 1.028,0.236 1.323,0.603 0.309,0.38 0.394,0.865 0.394,1.39 h -0.816 c -0.844,0 -2.097,-0.131 -2.097,-1.167 0,-0.576 0.521,-0.826 1.196,-0.826" /><path
       id="path32"
       style="fill:#000101;fill-opacity:1;fill-rule:nonzero;stroke:none"
       d="m 98.678,21.769 h 5.742 v -1.443 l -3.605,-3.946 h 3.732 v -1.363 h -6.025 v 1.429 l 3.673,3.959 h -3.517 v 1.364" /><path
       id="path34"
       style="fill:#ee2c56;fill-opacity:1;fill-rule:nonzero;stroke:none"
       d="m 106.073,14.831 h 6.9112 v 6.9111 h -6.9112 z" /><path
       id="path36"
       style="fill:#000101;fill-opacity:1;fill-rule:nonzero;stroke:none"
       d="M 3.1118,5.1357 V 5.8545 H 5.7056 V 3.5889 C 5.3081,3.2725 4.8979,3.0342 4.4751,2.875 4.0522,2.7158 3.6187,2.6357 3.1733,2.6357 2.5728,2.6357 2.0269,2.7646 1.5366,3.0225 1.0454,3.2793 0.67529,3.6514 0.4243,4.1387 0.1743,4.626 0.049305,5.1689 0.049305,5.7705 c 0,0.5957 0.123985,1.1514 0.373085,1.668 0.249,0.5156 0.60741,0.8994 1.07421,1.1494 0.4678,0.251 1.0058,0.376 1.6152,0.376 0.4414,0 0.8418,-0.0723 1.1992,-0.2159 C 4.6685,8.6045 4.9478,8.4043 5.1509,8.1475 5.354,7.8906 5.5083,7.5557 5.6138,7.1436 L 4.8872,6.9424 C 4.7954,7.2549 4.6812,7.5 4.5454,7.6787 4.4087,7.8564 4.2144,8 3.9604,8.1074 3.7075,8.2148 3.4263,8.2686 3.1177,8.2686 2.7476,8.2686 2.4282,8.2119 2.1577,8.0986 1.8882,7.9863 1.6704,7.8379 1.5054,7.6533 1.3394,7.4697 1.2104,7.2676 1.1187,7.0479 0.9634,6.668 0.88529,6.2568 0.88529,5.8135 0.88529,5.2666 0.979,4.8096 1.1665,4.4424 1.355,4.0732 1.6284,3.8008 1.9868,3.6221 2.3462,3.4434 2.7271,3.3545 3.1304,3.3545 c 0.3506,0 0.6924,0.0684 1.0263,0.2031 0.334,0.1358 0.587,0.2803 0.7598,0.4336 V 5.1357 H 3.1118" /><path
       id="path38"
       style="fill:#000101;fill-opacity:1;fill-rule:nonzero;stroke:none"
       d="M 6.7925,2.7373 V 7.167 H 7.4644 V 6.499 c 0.1728,0.3135 0.332,0.5196 0.4785,0.6192 0.1465,0.1006 0.3076,0.1504 0.4824,0.1504 0.2539,0 0.5117,-0.0811 0.7734,-0.2422 L 8.938,6.3301 C 8.7554,6.4404 8.5718,6.4951 8.3882,6.4951 8.2251,6.4951 8.0776,6.4463 7.9468,6.3467 7.8159,6.248 7.7231,6.1104 7.6675,5.9355 7.5845,5.6689 7.5425,5.376 7.5425,5.0586 V 2.7373 h -0.75" /><path
       id="path40"
       style="fill:#000101;fill-opacity:1;fill-rule:nonzero;stroke:none"
       d="M 12.549,3.292 C 12.272,3.0518 12.003,2.8828 11.746,2.7842 11.487,2.6846 11.21,2.6357 10.914,2.6357 c -0.489,0 -0.865,0.1192 -1.1274,0.3575 -0.2627,0.2373 -0.3935,0.541 -0.3935,0.9121 0,0.2168 0.0498,0.415 0.1484,0.5947 0.0996,0.1787 0.2295,0.3232 0.3906,0.4316 0.1599,0.1084 0.3409,0.1905 0.5419,0.2471 0.149,0.0391 0.372,0.0762 0.671,0.1123 0.609,0.0723 1.058,0.1592 1.346,0.2588 0.002,0.1025 0.004,0.168 0.004,0.1953 0,0.3047 -0.072,0.5195 -0.214,0.6445 -0.193,0.17 -0.48,0.254 -0.86,0.254 -0.354,0 -0.617,-0.0625 -0.786,-0.1856 C 10.466,6.334 10.341,6.1143 10.26,5.7998 L 9.5259,5.9014 c 0.0664,0.3144 0.1767,0.5693 0.3301,0.7627 0.153,0.1943 0.375,0.3427 0.664,0.4482 0.29,0.1035 0.626,0.1563 1.008,0.1563 0.378,0 0.685,-0.045 0.923,-0.1338 0.237,-0.0889 0.411,-0.2022 0.522,-0.3369 0.112,-0.1348 0.19,-0.3067 0.235,-0.5118 0.024,-0.1289 0.037,-0.3593 0.037,-0.6933 v -1.002 c 0,-0.6992 0.015,-1.1406 0.045,-1.3242 0.031,-0.1836 0.091,-0.3603 0.181,-0.5293 H 12.69 C 12.617,2.8955 12.57,3.0801 12.549,3.292 Z M 12.487,4.9639 C 12.212,4.8525 11.801,4.7568 11.252,4.6787 10.942,4.6338 10.722,4.584 10.593,4.5283 10.464,4.4727 10.365,4.3906 10.295,4.2832 10.225,4.1758 10.19,4.0566 10.19,3.9248 c 0,-0.2012 0.076,-0.3682 0.229,-0.5019 0.153,-0.1348 0.376,-0.2012 0.671,-0.2012 0.291,0 0.551,0.0635 0.778,0.1894 0.227,0.127 0.394,0.3008 0.501,0.5215 0.081,0.1699 0.122,0.4219 0.122,0.7539 l -0.004,0.2774" /><path
       id="path42"
       style="fill:#000101;fill-opacity:1;fill-rule:nonzero;stroke:none"
       d="m 13.997,2.7373 v 0.6113 l 2.815,3.2246 C 16.493,6.5576 16.21,6.5498 15.965,6.5498 H 14.161 V 7.167 h 3.625 V 6.6621 L 15.385,3.8584 14.916,3.3389 c 0.336,0.0312 0.653,0.0468 0.949,0.0468 h 2.053 V 2.7373 h -3.921" /><path
       id="path44"
       style="fill:#000101;fill-opacity:1;fill-rule:nonzero;stroke:none"
       d="m 25.135,8.8545 h 0.813 V 5.3213 C 25.948,4.707 25.878,4.2197 25.74,3.8584 25.6,3.4961 25.35,3.2021 24.987,2.9756 24.625,2.749 24.149,2.6357 23.56,2.6357 c -0.572,0 -1.04,0.0987 -1.404,0.2959 -0.364,0.1983 -0.624,0.4834 -0.78,0.8575 -0.155,0.374 -0.233,0.8847 -0.233,1.5322 v 3.5332 h 0.813 V 5.3232 c 0,-0.5312 0.048,-0.9218 0.147,-1.1738 0.099,-0.2519 0.268,-0.4463 0.507,-0.582 0.24,-0.1367 0.533,-0.2051 0.879,-0.2051 0.594,0 1.015,0.1348 1.268,0.4043 0.252,0.2705 0.378,0.7891 0.378,1.5566 v 3.5313" /><path
       id="path46"
       style="fill:#000101;fill-opacity:1;fill-rule:nonzero;stroke:none"
       d="M 27.2,2.7373 V 7.167 h 0.672 V 6.5371 c 0.326,0.4873 0.796,0.7315 1.412,0.7315 0.267,0 0.513,-0.0479 0.738,-0.1446 0.225,-0.0957 0.392,-0.2207 0.504,-0.3769 0.111,-0.1563 0.189,-0.3408 0.233,-0.5547 0.029,-0.1397 0.042,-0.3828 0.042,-0.7305 V 2.7373 h -0.75 v 2.6973 c 0,0.3066 -0.029,0.5351 -0.088,0.6865 -0.058,0.1514 -0.162,0.2725 -0.311,0.3633 -0.149,0.0908 -0.323,0.1357 -0.525,0.1357 -0.32,0 -0.596,-0.1015 -0.829,-0.3047 C 28.066,6.1123 27.95,5.7266 27.95,5.1592 V 2.7373 H 27.2" /><path
       id="path48"
       style="fill:#000101;fill-opacity:1;fill-rule:nonzero;stroke:none"
       d="m 32.707,8.0029 h -0.75 v 0.8516 h 0.75 z m -0.75,0 z m 0.75,-5.2656 h -0.75 V 7.167 h 0.75 z" /><path
       id="path50"
       style="fill:#000101;fill-opacity:1;fill-rule:nonzero;stroke:none"
       d="M 35.059,2.7373 33.384,7.167 h 0.802 l 0.948,-2.6524 c 0.104,-0.2871 0.199,-0.5839 0.285,-0.8925 0.067,0.2324 0.161,0.5136 0.28,0.8418 l 0.984,2.7031 h 0.772 l -1.68,-4.4297 h -0.716" /><path
       id="path52"
       style="fill:#000101;fill-opacity:1;fill-rule:nonzero;stroke:none"
       d="m 41.153,4.167 0.773,-0.1016 c -0.123,-0.4531 -0.349,-0.8047 -0.68,-1.0547 -0.331,-0.25 -0.754,-0.375 -1.269,-0.375 -0.648,0 -1.163,0.1993 -1.543,0.5987 -0.38,0.3994 -0.569,0.9599 -0.569,1.6806 0,0.7452 0.192,1.3243 0.576,1.7364 0.384,0.4111 0.882,0.6172 1.494,0.6172 0.593,0 1.076,-0.2012 1.452,-0.6055 0.376,-0.4024 0.564,-0.9707 0.564,-1.7022 0,-0.0439 -10e-4,-0.1113 -0.004,-0.2002 h -3.309 c 0.029,-0.4873 0.166,-0.8603 0.414,-1.1191 0.249,-0.2598 0.558,-0.3887 0.929,-0.3887 0.276,0 0.513,0.0723 0.708,0.2178 0.195,0.1455 0.35,0.3779 0.464,0.6963 z m -2.476,1.2109 h 2.485 c -0.034,0.3731 -0.129,0.6524 -0.286,0.8399 -0.24,0.289 -0.551,0.4336 -0.933,0.4336 -0.347,0 -0.638,-0.1153 -0.874,-0.3467 C 38.832,6.0732 38.703,5.7646 38.677,5.3779" /><path
       id="path54"
       style="fill:#000101;fill-opacity:1;fill-rule:nonzero;stroke:none"
       d="M 42.856,2.7373 V 7.167 h 0.672 V 6.499 c 0.173,0.3135 0.332,0.5196 0.478,0.6192 0.147,0.1006 0.307,0.1504 0.483,0.1504 0.254,0 0.511,-0.0811 0.773,-0.2422 l -0.26,-0.6963 c -0.183,0.1103 -0.367,0.165 -0.55,0.165 -0.164,0 -0.311,-0.0488 -0.442,-0.1484 C 43.879,6.248 43.787,6.1104 43.731,5.9355 43.648,5.6689 43.606,5.376 43.606,5.0586 V 2.7373 h -0.75" /><path
       id="path56"
       style="fill:#000101;fill-opacity:1;fill-rule:nonzero;stroke:none"
       d="m 45.41,4.0576 0.742,0.1172 C 46.194,3.877 46.309,3.6494 46.5,3.4912 46.69,3.332 46.957,3.2529 47.298,3.2529 c 0.345,0 0.601,0.0703 0.768,0.211 0.167,0.1406 0.25,0.3056 0.25,0.4951 0,0.1689 -0.073,0.3037 -0.219,0.4004 -0.101,0.0674 -0.357,0.1513 -0.766,0.2549 -0.552,0.1386 -0.934,0.2597 -1.147,0.3613 -0.213,0.1015 -0.375,0.2422 -0.484,0.4219 -0.111,0.1787 -0.165,0.3769 -0.165,0.5937 0,0.1973 0.045,0.3809 0.135,0.5488 0.09,0.168 0.214,0.3086 0.37,0.42 0.117,0.0859 0.276,0.1591 0.478,0.2187 0.202,0.0606 0.418,0.0899 0.649,0.0899 0.348,0 0.654,-0.0498 0.916,-0.1504 0.264,-0.0996 0.458,-0.2354 0.584,-0.4063 0.125,-0.1709 0.21,-0.3994 0.258,-0.6855 L 48.191,5.9248 c -0.033,0.2285 -0.13,0.4063 -0.29,0.5342 -0.16,0.1279 -0.387,0.1924 -0.679,0.1924 -0.346,0 -0.592,-0.0567 -0.739,-0.1719 -0.148,-0.1133 -0.222,-0.2471 -0.222,-0.4004 0,-0.0977 0.03,-0.1855 0.092,-0.2627 0.062,-0.081 0.157,-0.1475 0.288,-0.2002 0.075,-0.0283 0.297,-0.0918 0.664,-0.1924 0.532,-0.1416 0.902,-0.2588 1.113,-0.3486 0.208,-0.0908 0.374,-0.2227 0.493,-0.3945 0.119,-0.1719 0.178,-0.3868 0.178,-0.6426 0,-0.25 -0.073,-0.4863 -0.218,-0.707 C 48.724,3.1094 48.513,2.9385 48.238,2.8174 47.962,2.6963 47.651,2.6357 47.303,2.6357 c -0.575,0 -1.013,0.1192 -1.315,0.3584 -0.302,0.2393 -0.495,0.5938 -0.578,1.0635" /><path
       id="path58"
       style="fill:#000101;fill-opacity:1;fill-rule:nonzero;stroke:none"
       d="m 50.734,8.0029 h -0.75 v 0.8516 h 0.75 z m -0.75,0 z m 0.75,-5.2656 h -0.75 V 7.167 h 0.75 z" /><path
       id="path60"
       style="fill:#000101;fill-opacity:1;fill-rule:nonzero;stroke:none"
       d="M 53.514,3.4131 53.616,2.749 C 53.405,2.7051 53.215,2.6826 53.048,2.6826 c -0.272,0 -0.483,0.043 -0.633,0.1289 -0.15,0.086 -0.256,0.1992 -0.317,0.3399 -0.061,0.1406 -0.092,0.4355 -0.092,0.8847 v 2.545 H 51.452 V 7.167 h 0.554 v 1.0967 l 0.75,0.4502 V 7.167 h 0.758 V 6.5811 h -0.758 v -2.584 c 0,-0.2129 0.014,-0.3506 0.04,-0.4121 0.027,-0.0606 0.07,-0.1094 0.13,-0.1446 0.06,-0.0371 0.146,-0.0547 0.257,-0.0547 0.084,0 0.194,0.0088 0.331,0.0274" /><path
       id="path62"
       style="fill:#000101;fill-opacity:1;fill-rule:nonzero;stroke:none"
       d="m 54.214,1.0303 -0.086,0.6953 c 0.164,-0.044 0.308,-0.0664 0.431,-0.0664 0.167,0 0.301,0.0273 0.401,0.084 0.1,0.0547 0.183,0.1328 0.247,0.2334 0.047,0.0752 0.124,0.2627 0.229,0.5595 0.015,0.043 0.037,0.1035 0.067,0.1846 L 53.816,7.167 h 0.802 l 0.927,-2.5547 c 0.121,-0.3242 0.229,-0.6641 0.325,-1.0215 0.088,0.334 0.193,0.6651 0.312,0.9922 l 0.946,2.584 h 0.75 L 56.204,2.6602 C 56.022,2.1748 55.881,1.8398 55.781,1.6572 55.647,1.4092 55.493,1.2285 55.32,1.1133 55.147,0.99797 54.94,0.9404 54.7,0.9404 c -0.145,0 -0.307,0.03029 -0.486,0.0899" /><path
       id="path64"
       style="fill:#000101;fill-opacity:1;fill-rule:nonzero;stroke:none"
       d="m 60.606,4.9521 c 0,0.8204 0.228,1.4288 0.683,1.8243 0.381,0.3281 0.846,0.4922 1.393,0.4922 0.609,0 1.107,-0.1993 1.492,-0.5997 0.387,-0.3984 0.58,-0.9501 0.58,-1.6543 0,-0.5703 -0.086,-1.0195 -0.256,-1.3457 -0.172,-0.3271 -0.42,-0.581 -0.746,-0.7617 -0.326,-0.1816 -0.684,-0.2715 -1.07,-0.2715 -0.619,0 -1.122,0.1993 -1.502,0.5967 -0.383,0.3975 -0.574,0.9717 -0.574,1.7197 z m 0.773,-0.0019 c 0,-0.5674 0.123,-0.9922 0.371,-1.2734 0.246,-0.2832 0.557,-0.4239 0.932,-0.4239 0.373,0 0.681,0.1416 0.929,0.4258 0.246,0.2832 0.37,0.7158 0.37,1.2969 0,0.5469 -0.124,0.9629 -0.374,1.2441 -0.248,0.2832 -0.556,0.4239 -0.925,0.4239 -0.375,0 -0.686,-0.1407 -0.932,-0.4219 C 61.502,5.9414 61.379,5.5176 61.379,4.9502" /><path
       id="path66"
       style="fill:#000101;fill-opacity:1;fill-rule:nonzero;stroke:none"
       d="M 65.815,2.7373 V 6.5811 H 65.15 V 7.167 h 0.665 v 0.4707 c 0,0.2978 0.027,0.5195 0.08,0.6641 0.072,0.1943 0.201,0.3515 0.382,0.4726 0.184,0.1211 0.44,0.1817 0.768,0.1817 0.211,0 0.443,-0.0254 0.699,-0.0752 L 67.633,8.2266 c -0.156,0.0283 -0.303,0.042 -0.443,0.042 -0.227,0 -0.389,-0.0489 -0.483,-0.1465 C 66.611,8.0244 66.565,7.8428 66.565,7.5762 V 7.167 h 0.859 V 6.5811 H 66.565 V 2.7373 h -0.75" /><path
       id="path68"
       style="fill:#000101;fill-opacity:1;fill-rule:nonzero;stroke:none"
       d="m 71.875,2.7373 v 5.3984 h -2.016 v 0.7188 h 4.844 V 8.1357 H 72.688 V 2.7373 h -0.813" /><path
       id="path70"
       style="fill:#000101;fill-opacity:1;fill-rule:nonzero;stroke:none"
       d="m 77.533,4.167 0.772,-0.1016 c -0.121,-0.4531 -0.348,-0.8047 -0.68,-1.0547 -0.33,-0.25 -0.754,-0.375 -1.268,-0.375 -0.648,0 -1.164,0.1993 -1.542,0.5987 -0.381,0.3994 -0.571,0.9599 -0.571,1.6806 0,0.7452 0.191,1.3243 0.576,1.7364 0.385,0.4111 0.883,0.6172 1.495,0.6172 0.593,0 1.076,-0.2012 1.453,-0.6055 0.375,-0.4024 0.562,-0.9707 0.562,-1.7022 0,-0.0439 -0.002,-0.1113 -0.004,-0.2002 h -3.308 c 0.027,-0.4873 0.166,-0.8603 0.414,-1.1191 0.248,-0.2598 0.558,-0.3887 0.929,-0.3887 0.276,0 0.512,0.0723 0.707,0.2178 0.196,0.1455 0.35,0.3779 0.465,0.6963 z m -2.476,1.2109 h 2.484 c -0.033,0.3731 -0.129,0.6524 -0.285,0.8399 -0.24,0.289 -0.551,0.4336 -0.934,0.4336 -0.345,0 -0.637,-0.1153 -0.873,-0.3467 C 75.213,6.0732 75.082,5.7646 75.057,5.3779" /><path
       id="path72"
       style="fill:#000101;fill-opacity:1;fill-rule:nonzero;stroke:none"
       d="M 82.143,4.3623 82.877,4.2607 C 82.795,3.7529 82.59,3.3545 82.258,3.0674 81.926,2.7793 81.519,2.6357 81.035,2.6357 c -0.603,0 -1.092,0.1983 -1.459,0.5948 -0.367,0.3965 -0.551,0.9648 -0.551,1.705 0,0.4786 0.079,0.8975 0.237,1.2559 0.158,0.3594 0.4,0.6279 0.722,0.8076 0.325,0.1797 0.676,0.2696 1.057,0.2696 0.481,0 0.873,-0.1221 1.178,-0.3663 0.304,-0.2441 0.502,-0.5908 0.588,-1.04 L 82.08,5.7529 c -0.07,0.2979 -0.193,0.5225 -0.369,0.6729 -0.176,0.1504 -0.389,0.2256 -0.639,0.2256 -0.377,0 -0.683,-0.1358 -0.92,-0.4073 -0.236,-0.2714 -0.353,-0.7002 -0.353,-1.288 0,-0.5957 0.113,-1.0284 0.34,-1.2989 0.228,-0.2695 0.525,-0.4043 0.892,-0.4043 0.293,0 0.539,0.0909 0.737,0.2715 0.197,0.1817 0.322,0.461 0.375,0.8379" /><path
       id="path74"
       style="fill:#000101;fill-opacity:1;fill-rule:nonzero;stroke:none"
       d="m 83.514,2.7373 v 6.1172 h 0.75 V 6.6572 c 0.349,0.4082 0.791,0.6114 1.322,0.6114 0.328,0 0.613,-0.0645 0.854,-0.1944 0.242,-0.1289 0.413,-0.3076 0.519,-0.5361 0.103,-0.2276 0.156,-0.5586 0.156,-0.9922 V 2.7373 h -0.75 v 2.8066 c 0,0.375 -0.082,0.6485 -0.244,0.8204 -0.162,0.1699 -0.393,0.2558 -0.689,0.2558 -0.221,0 -0.43,-0.0576 -0.625,-0.1728 C 84.611,6.3311 84.471,6.1748 84.389,5.9775 84.305,5.7803 84.264,5.5078 84.264,5.1602 V 2.7373 h -0.75" /><path
       id="path76"
       style="fill:#000101;fill-opacity:1;fill-rule:nonzero;stroke:none"
       d="M 88.262,2.7373 V 7.167 h 0.672 V 6.5371 c 0.326,0.4873 0.796,0.7315 1.412,0.7315 0.267,0 0.513,-0.0479 0.738,-0.1446 0.223,-0.0957 0.391,-0.2207 0.502,-0.3769 0.113,-0.1563 0.189,-0.3408 0.234,-0.5547 0.03,-0.1397 0.043,-0.3828 0.043,-0.7305 V 2.7373 h -0.75 v 2.6973 c 0,0.3066 -0.029,0.5351 -0.088,0.6865 -0.058,0.1514 -0.162,0.2725 -0.312,0.3633 -0.148,0.0908 -0.322,0.1357 -0.523,0.1357 -0.321,0 -0.598,-0.1015 -0.831,-0.3047 C 89.127,6.1123 89.012,5.7266 89.012,5.1592 V 2.7373 h -0.75" /><path
       id="path78"
       style="fill:#000101;fill-opacity:1;fill-rule:nonzero;stroke:none"
       d="m 92.728,4.9521 c 0,0.8204 0.229,1.4288 0.684,1.8243 0.381,0.3281 0.846,0.4922 1.393,0.4922 0.609,0 1.107,-0.1993 1.492,-0.5997 0.387,-0.3984 0.58,-0.9501 0.58,-1.6543 0,-0.5703 -0.086,-1.0195 -0.256,-1.3457 -0.172,-0.3271 -0.42,-0.581 -0.746,-0.7617 -0.326,-0.1816 -0.684,-0.2715 -1.07,-0.2715 -0.62,0 -1.121,0.1993 -1.502,0.5967 -0.383,0.3975 -0.575,0.9717 -0.575,1.7197 z m 0.774,-0.0019 c 0,-0.5674 0.123,-0.9922 0.371,-1.2734 0.246,-0.2832 0.557,-0.4239 0.932,-0.4239 0.373,0 0.681,0.1416 0.929,0.4258 0.246,0.2832 0.369,0.7158 0.369,1.2969 0,0.5469 -0.123,0.9629 -0.373,1.2441 -0.248,0.2832 -0.556,0.4239 -0.925,0.4239 -0.375,0 -0.686,-0.1407 -0.932,-0.4219 C 93.625,5.9414 93.502,5.5176 93.502,4.9502" /><path
       id="path80"
       style="fill:#000101;fill-opacity:1;fill-rule:nonzero;stroke:none"
       d="m 97.744,2.7373 h 0.75 v 6.1172 h -0.75 z" /><path
       id="path82"
       style="fill:#000101;fill-opacity:1;fill-rule:nonzero;stroke:none"
       d="m 99.375,4.9521 c 0,0.8204 0.227,1.4288 0.684,1.8243 0.38,0.3281 0.843,0.4922 1.392,0.4922 0.608,0 1.106,-0.1993 1.492,-0.5997 0.387,-0.3984 0.58,-0.9501 0.58,-1.6543 0,-0.5703 -0.085,-1.0195 -0.257,-1.3457 -0.17,-0.3271 -0.418,-0.581 -0.747,-0.7617 -0.326,-0.1816 -0.681,-0.2715 -1.068,-0.2715 -0.621,0 -1.121,0.1993 -1.504,0.5967 -0.381,0.3975 -0.572,0.9717 -0.572,1.7197 z m 0.773,-0.0019 c 0,-0.5674 0.124,-0.9922 0.37,-1.2734 0.248,-0.2832 0.558,-0.4239 0.933,-0.4239 0.371,0 0.682,0.1416 0.928,0.4258 0.246,0.2832 0.371,0.7158 0.371,1.2969 0,0.5469 -0.125,0.9629 -0.373,1.2441 -0.248,0.2832 -0.557,0.4239 -0.926,0.4239 -0.375,0 -0.685,-0.1407 -0.933,-0.4219 -0.246,-0.2803 -0.37,-0.7041 -0.37,-1.2715" /><path
       id="path84"
       style="fill:#000101;fill-opacity:1;fill-rule:nonzero;stroke:none"
       d="m 104.268,2.3701 0.726,-0.1015 c 0.031,-0.2266 0.115,-0.3907 0.256,-0.4942 0.185,-0.1387 0.441,-0.209 0.764,-0.209 0.349,0 0.617,0.0694 0.806,0.208 0.19,0.1387 0.319,0.333 0.385,0.5821 0.039,0.1523 0.057,0.4716 0.055,0.9599 -0.328,-0.3857 -0.737,-0.5781 -1.227,-0.5781 -0.609,0 -1.08,0.2197 -1.414,0.6592 -0.334,0.4394 -0.5,0.9668 -0.5,1.581 0,0.4229 0.076,0.8135 0.229,1.1709 0.154,0.3575 0.375,0.6338 0.666,0.8282 0.291,0.1943 0.631,0.292 1.023,0.292 0.523,0 0.953,-0.2139 1.293,-0.6407 V 7.167 h 0.695 V 3.3389 c 0,-0.6895 -0.07,-1.1787 -0.21,-1.4668 -0.141,-0.2871 -0.364,-0.5147 -0.668,-0.6817 -0.305,-0.166 -0.68,-0.25 -1.125,-0.25 -0.53,0 -0.957,0.1192 -1.282,0.3565 -0.326,0.2373 -0.484,0.5947 -0.472,1.0732 z m 0.625,2.6621 c 0,-0.5801 0.115,-1.0039 0.345,-1.2705 0.231,-0.2666 0.52,-0.3994 0.867,-0.3994 0.344,0 0.633,0.1328 0.868,0.3975 0.232,0.2646 0.349,0.6806 0.349,1.247 0,0.5411 -0.121,0.9493 -0.361,1.2246 -0.24,0.2745 -0.529,0.4122 -0.867,0.4122 -0.334,0 -0.617,-0.1348 -0.852,-0.4063 -0.232,-0.2705 -0.349,-0.6719 -0.349,-1.2051" /><path
       id="path86"
       style="fill:#000101;fill-opacity:1;fill-rule:nonzero;stroke:none"
       d="m 109.121,1.0303 -0.086,0.6953 c 0.164,-0.044 0.309,-0.0664 0.432,-0.0664 0.166,0 0.301,0.0273 0.4,0.084 0.1,0.0547 0.182,0.1328 0.246,0.2334 0.049,0.0752 0.125,0.2627 0.231,0.5595 0.013,0.043 0.035,0.1035 0.066,0.1846 l -1.687,4.4463 h 0.802 l 0.928,-2.5547 c 0.121,-0.3242 0.229,-0.6641 0.322,-1.0215 0.09,0.334 0.194,0.6651 0.315,0.9922 l 0.945,2.584 h 0.75 l -1.674,-4.5068 c -0.181,-0.4854 -0.322,-0.8204 -0.424,-1.003 -0.132,-0.248 -0.287,-0.4287 -0.46,-0.5439 -0.172,-0.11533 -0.379,-0.1729 -0.62,-0.1729 -0.144,0 -0.306,0.03029 -0.486,0.0899" /></g></svg>